0
SECTION
2
HEADER
9
$INSUNITS
70
4
9
$ACADVER
1
AC1014
9
$HANDSEED
5
FFFF
0
ENDSEC
0
SECTION
2
TABLES
0
TABLE
2
VPORT
5
8
100
AcDbSymbolTable
0
ENDTAB
0
TABLE
2
LTYPE
5
5
100
AcDbSymbolTable
0
LTYPE
5
14
100
AcDbSymbolTableRecord
100
AcDbLinetypeTableRecord
2
BYBLOCK
70
0
0
LTYPE
5
15
100
AcDbSymbolTableRecord
100
AcDbLinetypeTableRecord
2
BYLAYER
70
0
0
LTYPE
5
16
100
AcDbSymbolTableRecord
100
AcDbLinetypeTableRecord
2
DASHED
70
0
3
Dashed __ __ __ __ __ __ __ __ __ __ __ __ __ _
72
65
73
2
40
0.75
49
0.5
74
0
49
-0.25
74
0
0
ENDTAB
0
TABLE
2
LAYER
5
2
100
AcDbSymbolTable
70
2
0
LAYER
5
50
100
AcDbSymbolTableRecord
100
AcDbLayerTableRecord
2
0
70
0
62
7
6
CONTINUOUS
0
ENDTAB
0
TABLE
2
STYLE
5
3
100
AcDbSymbolTable
70
1
0
STYLE
5
11
100
AcDbSymbolTableRecord
100
AcDbTextStyleTableRecord
2
STANDARD
70
0
0
ENDTAB
0
TABLE
2
VIEW
5
6
100
AcDbSymbolTable
70
0
0
ENDTAB
0
TABLE
2
UCS
5
7
100
AcDbSymbolTable
70
0
0
ENDTAB
0
TABLE
2
APPID
5
9
100
AcDbSymbolTable
70
2
0
APPID
5
12
100
AcDbSymbolTableRecord
100
AcDbRegAppTableRecord
2
ACAD
70
0
0
ENDTAB
0
TABLE
2
DIMSTYLE
5
A
100
AcDbSymbolTable
70
1
0
ENDTAB
0
TABLE
2
BLOCK_RECORD
5
1
100
AcDbSymbolTable
70
1
0
BLOCK_RECORD
5
1F
100
AcDbSymbolTableRecord
100
AcDbBlockTableRecord
2
*MODEL_SPACE
0
BLOCK_RECORD
5
1B
100
AcDbSymbolTableRecord
100
AcDbBlockTableRecord
2
*PAPER_SPACE
0
ENDTAB
0
ENDSEC
0
SECTION
2
BLOCKS
0
BLOCK
5
20
100
AcDbEntity
100
AcDbBlockBegin
2
*MODEL_SPACE
0
ENDBLK
5
21
100
AcDbEntity
100
AcDbBlockEnd
0
BLOCK
5
1C
100
AcDbEntity
100
AcDbBlockBegin
2
*PAPER_SPACE
0
ENDBLK
5
1D
100
AcDbEntity
100
AcDbBlockEnd
0
ENDSEC
0
SECTION
2
ENTITIES
0
LWPOLYLINE
5
100
100
AcDbEntity
8
OUTER_PROFILES
100
AcDbPolyline
90
4
70
1
43
0.0
10
0
20
86.200000000000017
10
225.49999999999997
20
86.200000000000017
10
225.49999999999997
20
0
10
0
20
0
0
LWPOLYLINE
5
101
100
AcDbEntity
8
INTERIOR_PROFILES
100
AcDbPolyline
90
8
70
1
43
0.0
10
46.024999999999991
20
40.57500000000001
10
33.024999999999991
20
40.57500000000001
42
0.41421356237309503
10
32.524999999999991
20
40.07500000000001
10
32.524999999999991
20
27.075000000000003
42
0.41421356237309503
10
33.024999999999991
20
26.575000000000006
10
46.024999999999991
20
26.575000000000006
42
0.41421356237309503
10
46.524999999999991
20
27.075000000000003
10
46.524999999999991
20
40.07500000000001
42
0.41421356237309503
0
LWPOLYLINE
5
102
100
AcDbEntity
8
INTERIOR_PROFILES
100
AcDbPolyline
90
8
70
1
43
0.0
10
54.037499999999994
20
21.025000000000009
10
54.037499999999994
20
8.025000000000011
42
0.41421356237309503
10
54.537499999999994
20
7.5250000000000128
10
55.537500000000001
20
7.5250000000000128
42
0.41421356237309503
10
56.037499999999994
20
8.025000000000011
10
56.037499999999994
20
21.025000000000009
42
0.41421356237309503
10
55.537500000000001
20
21.525000000000006
10
54.537499999999994
20
21.525000000000006
42
0.41421356237309503
0
LWPOLYLINE
5
103
100
AcDbEntity
8
INTERIOR_PROFILES
100
AcDbPolyline
90
8
70
1
43
0.0
10
109.22499999999999
20
7.5250000000000128
42
-0.41421356237309503
10
108.72499999999999
20
8.025000000000011
10
108.72499999999999
20
21.025000000000009
42
-0.41421356237309503
10
109.22499999999999
20
21.525000000000006
10
122.22499999999999
20
21.524999999999999
42
-0.41421356237309503
10
122.72499999999997
20
21.025000000000009
10
122.72500000000001
20
8.025000000000011
42
-0.41421356237309503
10
122.22499999999999
20
7.5250000000000128
0
LWPOLYLINE
5
104
100
AcDbEntity
8
INTERIOR_PROFILES
100
AcDbPolyline
90
8
70
1
43
0.0
10
141.77500000000003
20
27.075000000000003
10
141.77500000000003
20
40.07500000000001
42
0.41421356237309503
10
141.27500000000001
20
40.575000000000017
10
128.27500000000001
20
40.575000000000017
42
0.41421356237309503
10
127.77500000000001
20
40.07500000000001
10
127.77500000000002
20
27.075000000000003
42
0.41421356237309503
10
128.27500000000001
20
26.575000000000017
10
141.27500000000001
20
26.574999999999996
42
0.41421356237309503
0
LWPOLYLINE
5
105
100
AcDbEntity
8
INTERIOR_PROFILES
100
AcDbPolyline
90
8
70
1
43
0.0
10
184.92500000000001
20
59.125000000000014
10
184.92500000000001
20
46.125000000000007
42
0.41421356237309503
10
185.42500000000001
20
45.625
10
198.42500000000001
20
45.625
42
0.41421356237309503
10
198.92500000000001
20
46.125000000000007
10
198.92500000000001
20
59.125000000000014
42
0.41421356237309503
10
198.42500000000001
20
59.625000000000021
10
185.42500000000001
20
59.625000000000021
42
0.41421356237309503
0
LWPOLYLINE
5
106
100
AcDbEntity
8
INTERIOR_PROFILES
100
AcDbPolyline
90
8
70
1
43
0.0
10
127.77500000000001
20
59.125000000000014
10
127.77500000000002
20
46.125000000000007
42
0.41421356237309503
10
128.27500000000001
20
45.625000000000014
10
141.27500000000001
20
45.625
42
0.41421356237309503
10
141.77500000000003
20
46.125000000000007
10
141.77500000000003
20
59.125000000000014
42
0.41421356237309503
10
141.27500000000001
20
59.625000000000021
10
128.27500000000001
20
59.625000000000021
42
0.41421356237309503
0
LWPOLYLINE
5
107
100
AcDbEntity
8
INTERIOR_PROFILES
100
AcDbPolyline
90
8
70
1
43
0.0
10
109.22499999999999
20
45.625000000000007
42
-0.41421356237309503
10
108.72499999999999
20
46.125000000000007
10
108.72499999999999
20
59.125000000000014
42
-0.41421356237309503
10
109.22499999999999
20
59.625000000000014
10
122.22499999999999
20
59.625
42
-0.41421356237309503
10
122.72499999999997
20
59.125000000000014
10
122.72500000000001
20
46.125000000000007
42
-0.41421356237309503
10
122.22499999999999
20
45.625
0
LWPOLYLINE
5
108
100
AcDbEntity
8
INTERIOR_PROFILES
100
AcDbPolyline
90
8
70
1
43
0.0
10
198.42500000000001
20
40.575000000000017
42
-0.41421356237309503
10
198.92500000000001
20
40.07500000000001
10
198.92500000000001
20
27.075000000000003
42
-0.41421356237309503
10
198.42500000000001
20
26.575000000000006
10
185.42500000000001
20
26.574999999999996
42
-0.41421356237309503
10
184.92500000000001
20
27.075000000000003
10
184.92500000000001
20
40.07500000000001
42
-0.41421356237309503
10
185.42500000000001
20
40.57500000000001
0
LWPOLYLINE
5
109
100
AcDbEntity
8
INTERIOR_PROFILES
100
AcDbPolyline
90
8
70
1
43
0.0
10
160.32499999999999
20
59.625000000000021
10
147.32500000000002
20
59.625000000000021
42
0.41421356237309503
10
146.82500000000002
20
59.125000000000014
10
146.82500000000002
20
46.125000000000007
42
0.41421356237309503
10
147.32500000000002
20
45.625
10
160.32499999999999
20
45.625
42
0.41421356237309503
10
160.82499999999999
20
46.125000000000007
10
160.82499999999999
20
59.125000000000014
42
0.41421356237309503
0
LWPOLYLINE
5
110
100
AcDbEntity
8
INTERIOR_PROFILES
100
AcDbPolyline
90
8
70
1
43
0.0
10
122.22499999999999
20
78.674999999999997
10
109.22499999999999
20
78.675000000000011
42
0.41421356237309503
10
108.72499999999999
20
78.175000000000011
10
108.72499999999999
20
65.175000000000011
42
0.41421356237309503
10
109.22499999999999
20
64.675000000000011
10
122.22499999999999
20
64.674999999999997
42
0.41421356237309503
10
122.72500000000001
20
65.175000000000011
10
122.72499999999999
20
78.175000000000011
42
0.41421356237309503
0
LWPOLYLINE
5
111
100
AcDbEntity
8
INTERIOR_PROFILES
100
AcDbPolyline
90
8
70
1
43
0.0
10
179.87499999999997
20
27.075000000000003
10
179.875
20
40.07500000000001
42
0.41421356237309503
10
179.375
20
40.575000000000017
10
166.375
20
40.575000000000017
42
0.41421356237309503
10
165.875
20
40.07500000000001
10
165.875
20
27.075000000000003
42
0.41421356237309503
10
166.375
20
26.574999999999996
10
179.375
20
26.575000000000031
42
0.41421356237309503
0
LWPOLYLINE
5
112
100
AcDbEntity
8
INTERIOR_PROFILES
100
AcDbPolyline
90
8
70
1
43
0.0
10
187.38749999999996
20
21.025000000000009
10
187.38749999999999
20
8.025000000000011
42
0.41421356237309503
10
187.88749999999999
20
7.5250000000000039
10
188.88749999999999
20
7.5250000000000039
42
0.41421356237309503
10
189.38749999999999
20
8.025000000000011
10
189.38749999999999
20
21.025000000000009
42
0.41421356237309503
10
188.88749999999999
20
21.524999999999999
10
187.88749999999999
20
21.525000000000052
42
0.41421356237309503
0
LWPOLYLINE
5
113
100
AcDbEntity
8
INTERIOR_PROFILES
100
AcDbPolyline
90
8
70
1
43
0.0
10
141.27500000000001
20
21.525000000000016
10
128.27500000000001
20
21.525000000000016
42
0.41421356237309503
10
127.77500000000001
20
21.025000000000009
10
127.77500000000002
20
8.025000000000011
42
0.41421356237309503
10
128.27500000000001
20
7.5250000000000217
10
141.27500000000001
20
7.5250000000000039
42
0.41421356237309503
10
141.77500000000003
20
8.025000000000011
10
141.77500000000003
20
21.025000000000009
42
0.41421356237309503
0
LWPOLYLINE
5
114
100
AcDbEntity
8
INTERIOR_PROFILES
100
AcDbPolyline
90
8
70
1
43
0.0
10
61.11249999999999
20
21.025000000000009
10
61.112499999999997
20
8.025000000000011
42
0.41421356237309503
10
61.612499999999997
20
7.5250000000000083
10
62.612499999999997
20
7.5250000000000128
42
0.41421356237309503
10
63.112499999999997
20
8.025000000000011
10
63.112499999999997
20
21.025000000000009
42
0.41421356237309503
10
62.612499999999997
20
21.525000000000006
10
61.612499999999997
20
21.525000000000016
42
0.41421356237309503
0
LWPOLYLINE
5
115
100
AcDbEntity
8
INTERIOR_PROFILES
100
AcDbPolyline
90
8
70
1
43
0.0
10
165.875
20
78.175000000000011
10
165.875
20
65.175000000000011
42
0.41421356237309503
10
166.375
20
64.674999999999997
10
179.375
20
64.674999999999997
42
0.41421356237309503
10
179.875
20
65.175000000000011
10
179.875
20
78.175000000000011
42
0.41421356237309503
10
179.375
20
78.675000000000011
10
166.375
20
78.675000000000011
42
0.41421356237309503
0
LWPOLYLINE
5
116
100
AcDbEntity
8
INTERIOR_PROFILES
100
AcDbPolyline
90
8
70
1
43
0.0
10
103.675
20
8.025000000000011
10
103.675
20
21.025000000000009
42
0.41421356237309503
10
103.17499999999998
20
21.525000000000006
10
90.174999999999983
20
21.525000000000016
42
0.41421356237309503
10
89.674999999999983
20
21.025000000000009
10
89.674999999999983
20
8.025000000000011
42
0.41421356237309503
10
90.174999999999983
20
7.5250000000000128
10
103.17499999999998
20
7.5250000000000039
42
0.41421356237309503
0
LWPOLYLINE
5
117
100
AcDbEntity
8
INTERIOR_PROFILES
100
AcDbPolyline
90
8
70
1
43
0.0
10
128.27500000000001
20
64.675000000000026
10
141.27500000000001
20
64.674999999999997
42
0.41421356237309503
10
141.77500000000003
20
65.175000000000011
10
141.77500000000003
20
78.175000000000011
42
0.41421356237309503
10
141.27500000000001
20
78.675000000000011
10
128.27500000000001
20
78.675000000000011
42
0.41421356237309503
10
127.77500000000001
20
78.175000000000011
10
127.77500000000002
20
65.175000000000011
42
0.41421356237309503
0
LWPOLYLINE
5
118
100
AcDbEntity
8
INTERIOR_PROFILES
100
AcDbPolyline
90
8
70
1
43
0.0
10
71.124999999999986
20
64.675000000000011
42
-0.41421356237309503
10
70.624999999999986
20
65.175000000000011
10
70.624999999999986
20
78.175000000000011
42
-0.41421356237309503
10
71.124999999999986
20
78.675000000000011
10
84.124999999999972
20
78.675000000000011
42
-0.41421356237309503
10
84.624999999999986
20
78.175000000000011
10
84.624999999999986
20
65.175000000000011
42
-0.41421356237309503
10
84.124999999999972
20
64.675000000000011
0
LWPOLYLINE
5
119
100
AcDbEntity
8
INTERIOR_PROFILES
100
AcDbPolyline
90
8
70
1
43
0.0
10
160.32499999999999
20
78.675000000000011
10
147.32500000000002
20
78.675000000000011
42
0.41421356237309503
10
146.82500000000002
20
78.175000000000011
10
146.82500000000002
20
65.175000000000011
42
0.41421356237309503
10
147.32500000000002
20
64.674999999999997
10
160.32499999999999
20
64.674999999999997
42
0.41421356237309503
10
160.82499999999999
20
65.175000000000011
10
160.82499999999999
20
78.175000000000011
42
0.41421356237309503
0
LWPOLYLINE
5
120
100
AcDbEntity
8
INTERIOR_PROFILES
100
AcDbPolyline
90
8
70
1
43
0.0
10
160.32499999999999
20
21.525000000000016
10
147.32500000000002
20
21.525000000000016
42
0.41421356237309503
10
146.82500000000002
20
21.025000000000009
10
146.82500000000002
20
8.025000000000011
42
0.41421356237309503
10
147.32500000000002
20
7.5250000000000039
10
160.32499999999999
20
7.5250000000000039
42
0.41421356237309503
10
160.82499999999999
20
8.025000000000011
10
160.82499999999999
20
21.025000000000009
42
0.41421356237309503
0
LWPOLYLINE
5
121
100
AcDbEntity
8
INTERIOR_PROFILES
100
AcDbPolyline
90
8
70
1
43
0.0
10
65.862499999999983
20
21.025000000000009
10
65.862499999999997
20
8.025000000000011
42
0.41421356237309503
10
66.362499999999997
20
7.5250000000000083
10
79.362499999999997
20
7.5250000000000128
42
0.41421356237309503
10
79.862499999999997
20
8.025000000000011
10
79.862499999999997
20
21.025000000000009
42
0.41421356237309503
10
79.362499999999997
20
21.525000000000006
10
66.362499999999997
20
21.525000000000016
42
0.41421356237309503
0
LWPOLYLINE
5
122
100
AcDbEntity
8
INTERIOR_PROFILES
100
AcDbPolyline
90
8
70
1
43
0.0
10
90.174999999999983
20
64.675000000000011
42
-0.41421356237309503
10
89.674999999999983
20
65.175000000000011
10
89.674999999999983
20
78.175000000000011
42
-0.41421356237309503
10
90.174999999999983
20
78.675000000000011
10
103.17499999999998
20
78.675000000000011
42
-0.41421356237309503
10
103.675
20
78.175000000000011
10
103.675
20
65.175000000000011
42
-0.41421356237309503
10
103.17499999999998
20
64.675000000000011
0
LWPOLYLINE
5
123
100
AcDbEntity
8
INTERIOR_PROFILES
100
AcDbPolyline
90
8
70
1
43
0.0
10
34.537499999999987
20
8.025000000000011
10
34.537499999999987
20
21.025000000000009
42
0.41421356237309503
10
34.037499999999994
20
21.525000000000006
10
33.037499999999994
20
21.525000000000006
42
0.41421356237309503
10
32.537499999999994
20
21.025000000000009
10
32.537499999999994
20
8.025000000000011
42
0.41421356237309503
10
33.037499999999994
20
7.525000000000011
10
34.037499999999994
20
7.5250000000000128
42
0.41421356237309503
0
LWPOLYLINE
5
124
100
AcDbEntity
8
INTERIOR_PROFILES
100
AcDbPolyline
90
8
70
1
43
0.0
10
203.97500000000002
20
40.07500000000001
10
203.97499999999997
20
27.075000000000003
42
0.41421356237309503
10
204.47499999999997
20
26.574999999999996
10
217.47499999999997
20
26.574999999999996
42
0.41421356237309503
10
217.97499999999997
20
27.075000000000003
10
217.97499999999997
20
40.07500000000001
42
0.41421356237309503
10
217.47499999999997
20
40.575000000000017
10
204.47499999999997
20
40.574999999999982
42
0.41421356237309503
0
LWPOLYLINE
5
125
100
AcDbEntity
8
INTERIOR_PROFILES
100
AcDbPolyline
90
8
70
1
43
0.0
10
216.46250000000003
20
7.5250000000000039
10
217.46249999999998
20
7.5250000000000039
42
0.41421356237309503
10
217.96249999999998
20
8.025000000000011
10
217.96249999999998
20
21.025000000000009
42
0.41421356237309503
10
217.46249999999998
20
21.525000000000016
10
216.46250000000003
20
21.525000000000016
42
0.41421356237309503
10
215.96250000000001
20
21.025000000000009
10
215.96250000000001
20
8.025000000000011
42
0.41421356237309503
0
LWPOLYLINE
5
126
100
AcDbEntity
8
INTERIOR_PROFILES
100
AcDbPolyline
90
8
70
1
43
0.0
10
194.96249999999998
20
7.5250000000000394
42
-0.41421356237309503
10
194.46249999999998
20
8.025000000000011
10
194.46249999999995
20
21.025000000000009
42
-0.41421356237309503
10
194.96249999999998
20
21.525000000000006
10
195.96249999999998
20
21.525000000000016
42
-0.41421356237309503
10
196.46249999999998
20
21.025000000000009
10
196.46249999999998
20
8.025000000000011
42
-0.41421356237309503
10
195.96249999999998
20
7.5250000000000128
0
LWPOLYLINE
5
127
100
AcDbEntity
8
INTERIOR_PROFILES
100
AcDbPolyline
90
8
70
1
43
0.0
10
185.42500000000001
20
64.674999999999997
10
198.42500000000001
20
64.674999999999997
42
0.41421356237309503
10
198.92500000000001
20
65.175000000000011
10
198.92500000000001
20
78.175000000000011
42
0.41421356237309503
10
198.42500000000001
20
78.675000000000011
10
185.42500000000001
20
78.675000000000011
42
0.41421356237309503
10
184.92500000000001
20
78.175000000000011
10
184.92500000000001
20
65.175000000000011
42
0.41421356237309503
0
LWPOLYLINE
5
128
100
AcDbEntity
8
INTERIOR_PROFILES
100
AcDbPolyline
90
8
70
1
43
0.0
10
71.124999999999986
20
45.625000000000007
10
84.124999999999972
20
45.625
42
0.41421356237309503
10
84.624999999999986
20
46.125000000000007
10
84.624999999999986
20
59.125000000000014
42
0.41421356237309503
10
84.124999999999972
20
59.625000000000014
10
71.124999999999986
20
59.625000000000014
42
0.41421356237309503
10
70.624999999999986
20
59.125000000000014
10
70.624999999999986
20
46.125000000000007
42
0.41421356237309503
0
LWPOLYLINE
5
129
100
AcDbEntity
8
INTERIOR_PROFILES
100
AcDbPolyline
90
8
70
1
43
0.0
10
33.024999999999991
20
45.625000000000007
42
-0.41421356237309503
10
32.524999999999991
20
46.125000000000007
10
32.524999999999991
20
59.125000000000014
42
-0.41421356237309503
10
33.024999999999991
20
59.625
10
46.024999999999991
20
59.625000000000014
42
-0.41421356237309503
10
46.524999999999991
20
59.125000000000014
10
46.524999999999999
20
46.125000000000007
42
-0.41421356237309503
10
46.024999999999991
20
45.625
0
LWPOLYLINE
5
130
100
AcDbEntity
8
INTERIOR_PROFILES
100
AcDbPolyline
90
8
70
1
43
0.0
10
165.875
20
59.125000000000014
10
165.875
20
46.125000000000007
42
0.41421356237309503
10
166.375
20
45.625
10
179.375
20
45.625
42
0.41421356237309503
10
179.875
20
46.125000000000007
10
179.875
20
59.125000000000014
42
0.41421356237309503
10
179.375
20
59.625000000000021
10
166.375
20
59.625000000000021
42
0.41421356237309503
0
LWPOLYLINE
5
131
100
AcDbEntity
8
INTERIOR_PROFILES
100
AcDbPolyline
90
8
70
1
43
0.0
10
167.38749999999996
20
21.525000000000016
10
166.38749999999999
20
21.525000000000016
42
0.41421356237309503
10
165.88749999999999
20
21.025000000000009
10
165.88749999999999
20
8.025000000000011
42
0.41421356237309503
10
166.38749999999999
20
7.5250000000000039
10
167.38749999999996
20
7.5250000000000039
42
0.41421356237309503
10
167.88749999999996
20
8.025000000000011
10
167.88749999999996
20
21.025000000000009
42
0.41421356237309503
0
LWPOLYLINE
5
132
100
AcDbEntity
8
INTERIOR_PROFILES
100
AcDbPolyline
90
8
70
1
43
0.0
10
82.612500000000011
20
21.025000000000009
10
82.612499999999969
20
8.025000000000011
42
0.41421356237309503
10
83.112499999999983
20
7.5250000000000128
10
84.112499999999983
20
7.5250000000000039
42
0.41421356237309503
10
84.612499999999997
20
8.025000000000011
10
84.612499999999997
20
21.025000000000009
42
0.41421356237309503
10
84.112499999999983
20
21.525000000000006
10
83.112499999999983
20
21.524999999999981
42
0.41421356237309503
0
LWPOLYLINE
5
133
100
AcDbEntity
8
INTERIOR_PROFILES
100
AcDbPolyline
90
8
70
1
43
0.0
10
108.72499999999999
20
40.07500000000001
10
108.72499999999999
20
27.075000000000003
42
0.41421356237309503
10
109.22499999999999
20
26.575000000000006
10
122.22499999999999
20
26.574999999999996
42
0.41421356237309503
10
122.72500000000001
20
27.075000000000003
10
122.72499999999999
20
40.07500000000001
42
0.41421356237309503
10
122.22499999999999
20
40.575000000000003
10
109.22499999999999
20
40.575000000000017
42
0.41421356237309503
0
LWPOLYLINE
5
134
100
AcDbEntity
8
INTERIOR_PROFILES
100
AcDbPolyline
90
8
70
1
43
0.0
10
203.97499999999997
20
59.125000000000014
42
-0.41421356237309503
10
204.47499999999997
20
59.625000000000014
10
217.47499999999997
20
59.625000000000021
42
-0.41421356237309503
10
217.97499999999999
20
59.125000000000014
10
217.97499999999997
20
46.125000000000007
42
-0.41421356237309503
10
217.47499999999997
20
45.625
10
204.47499999999997
20
45.625
42
-0.41421356237309503
10
203.97500000000002
20
46.125000000000007
0
LWPOLYLINE
5
135
100
AcDbEntity
8
INTERIOR_PROFILES
100
AcDbPolyline
90
8
70
1
43
0.0
10
199.71249999999998
20
7.5250000000000039
42
-0.41421356237309503
10
199.21249999999998
20
8.025000000000011
10
199.21249999999998
20
21.025000000000009
42
-0.41421356237309503
10
199.71249999999998
20
21.525000000000006
10
212.71250000000003
20
21.525000000000016
42
-0.41421356237309503
10
213.21250000000003
20
21.025000000000009
10
213.21250000000003
20
8.025000000000011
42
-0.41421356237309503
10
212.71250000000003
20
7.5250000000000128
0
LWPOLYLINE
5
136
100
AcDbEntity
8
INTERIOR_PROFILES
100
AcDbPolyline
90
8
70
1
43
0.0
10
37.287499999999994
20
21.025000000000009
10
37.287499999999987
20
8.025000000000011
42
0.41421356237309503
10
37.787499999999994
20
7.525000000000011
10
50.787499999999994
20
7.5250000000000128
42
0.41421356237309503
10
51.287499999999994
20
8.025000000000011
10
51.287499999999994
20
21.025000000000009
42
0.41421356237309503
10
50.787499999999994
20
21.525000000000006
10
37.787499999999994
20
21.525000000000006
42
0.41421356237309503
0
LWPOLYLINE
5
137
100
AcDbEntity
8
INTERIOR_PROFILES
100
AcDbPolyline
90
8
70
1
43
0.0
10
160.82499999999999
20
27.075000000000003
42
-0.41421356237309503
10
160.32499999999999
20
26.575000000000006
10
147.32500000000002
20
26.574999999999996
42
-0.41421356237309503
10
146.82500000000002
20
27.075000000000003
10
146.82500000000002
20
40.07500000000001
42
-0.41421356237309503
10
147.32500000000002
20
40.57500000000001
10
160.32499999999999
20
40.575000000000017
42
-0.41421356237309503
10
160.82499999999999
20
40.07500000000001
0
LWPOLYLINE
5
138
100
AcDbEntity
8
INTERIOR_PROFILES
100
AcDbPolyline
90
8
70
1
43
0.0
10
51.574999999999996
20
40.07500000000001
10
51.574999999999989
20
27.075000000000003
42
0.41421356237309503
10
52.074999999999989
20
26.575000000000006
10
65.074999999999989
20
26.575000000000006
42
0.41421356237309503
10
65.574999999999989
20
27.075000000000003
10
65.574999999999989
20
40.07500000000001
42
0.41421356237309503
10
65.074999999999989
20
40.57500000000001
10
52.074999999999989
20
40.575000000000003
42
0.41421356237309503
0
LWPOLYLINE
5
139
100
AcDbEntity
8
INTERIOR_PROFILES
100
AcDbPolyline
90
8
70
1
43
0.0
10
170.63749999999999
20
21.025000000000009
10
170.63749999999996
20
8.025000000000011
42
0.41421356237309503
10
171.13749999999996
20
7.5250000000000039
10
184.13749999999999
20
7.5250000000000039
42
0.41421356237309503
10
184.63750000000002
20
8.025000000000011
10
184.63749999999999
20
21.025000000000009
42
0.41421356237309503
10
184.13749999999999
20
21.524999999999999
10
171.13749999999996
20
21.524999999999981
42
0.41421356237309503
0
LWPOLYLINE
5
140
100
AcDbEntity
8
INTERIOR_PROFILES
100
AcDbPolyline
90
8
70
1
43
0.0
10
103.17499999999998
20
59.625
10
90.174999999999983
20
59.625000000000021
42
0.41421356237309503
10
89.674999999999983
20
59.125000000000014
10
89.674999999999983
20
46.125000000000007
42
0.41421356237309503
10
90.174999999999983
20
45.625000000000007
10
103.17499999999998
20
45.625
42
0.41421356237309503
10
103.675
20
46.125000000000007
10
103.67499999999998
20
59.125000000000014
42
0.41421356237309503
0
LWPOLYLINE
5
141
100
AcDbEntity
8
INTERIOR_PROFILES
100
AcDbPolyline
90
8
70
1
43
0.0
10
103.17499999999998
20
40.57500000000001
42
-0.41421356237309503
10
103.675
20
40.07500000000001
10
103.675
20
27.075000000000003
42
-0.41421356237309503
10
103.17499999999998
20
26.575000000000006
10
90.174999999999983
20
26.575000000000006
42
-0.41421356237309503
10
89.674999999999983
20
27.075000000000003
10
89.674999999999983
20
40.07500000000001
42
-0.41421356237309503
10
90.174999999999983
20
40.57500000000001
0
LWPOLYLINE
5
142
100
AcDbEntity
8
INTERIOR_PROFILES
100
AcDbPolyline
90
8
70
1
43
0.0
10
51.574999999999996
20
59.125000000000014
10
51.574999999999989
20
46.125000000000007
42
0.41421356237309503
10
52.074999999999989
20
45.625000000000007
10
65.074999999999989
20
45.625000000000007
42
0.41421356237309503
10
65.574999999999989
20
46.125000000000007
10
65.575000000000003
20
59.125000000000014
42
0.41421356237309503
10
65.074999999999989
20
59.625000000000021
10
52.074999999999989
20
59.625
42
0.41421356237309503
0
LWPOLYLINE
5
143
100
AcDbEntity
8
INTERIOR_PROFILES
100
AcDbPolyline
90
8
70
1
43
0.0
10
71.124999999999986
20
26.575000000000006
10
84.124999999999972
20
26.574999999999996
42
0.41421356237309503
10
84.624999999999986
20
27.075000000000003
10
84.624999999999986
20
40.07500000000001
42
0.41421356237309503
10
84.124999999999972
20
40.57500000000001
10
71.124999999999986
20
40.57500000000001
42
0.41421356237309503
10
70.624999999999986
20
40.07500000000001
10
70.624999999999986
20
27.075000000000003
42
0.41421356237309503
0
LWPOLYLINE
5
144
100
AcDbEntity
8
INTERIOR_PROFILES
100
AcDbPolyline
90
8
70
1
43
0.0
10
46.524999999999991
20
65.175000000000011
42
-0.41421356237309503
10
46.024999999999991
20
64.675000000000011
10
33.024999999999991
20
64.675000000000011
42
-0.41421356237309503
10
32.524999999999991
20
65.175000000000011
10
32.524999999999991
20
78.175000000000011
42
-0.41421356237309503
10
33.024999999999991
20
78.675000000000011
10
46.024999999999991
20
78.675000000000011
42
-0.41421356237309503
10
46.524999999999991
20
78.175000000000011
0
LWPOLYLINE
5
145
100
AcDbEntity
8
INTERIOR_PROFILES
100
AcDbPolyline
90
8
70
1
43
0.0
10
204.47499999999997
20
64.674999999999997
42
-0.41421356237309503
10
203.97499999999997
20
65.175000000000011
10
203.97499999999997
20
78.175000000000011
42
-0.41421356237309503
10
204.47499999999997
20
78.675000000000011
10
217.47499999999997
20
78.675000000000011
42
-0.41421356237309503
10
217.97499999999997
20
78.175000000000011
10
217.97499999999997
20
65.175000000000011
42
-0.41421356237309503
10
217.47499999999997
20
64.675000000000011
0
LWPOLYLINE
5
146
100
AcDbEntity
8
INTERIOR_PROFILES
100
AcDbPolyline
90
8
70
1
43
0.0
10
52.074999999999989
20
64.675000000000011
10
65.074999999999989
20
64.675000000000011
42
0.41421356237309503
10
65.574999999999989
20
65.175000000000011
10
65.575000000000003
20
78.175000000000011
42
0.41421356237309503
10
65.074999999999989
20
78.675000000000011
10
52.074999999999989
20
78.675000000000011
42
0.41421356237309503
10
51.574999999999989
20
78.175000000000011
10
51.574999999999989
20
65.175000000000011
42
0.41421356237309503
0
ENDSEC
0
SECTION
2
OBJECTS
0
DICTIONARY
5
C
100
AcDbDictionary
3
ACAD_GROUP
350
D
3
ACAD_MLINESTYLE
350
17
0
DICTIONARY
5
D
100
AcDbDictionary
0
DICTIONARY
5
1A
330
C
100
AcDbDictionary
0
DICTIONARY
5
17
100
AcDbDictionary
0
ENDSEC
0
EOF
